# xmcd
#
# Track frame offsets:
#      180
#      16781
#      35988
#      52982
#      69473
#      87160
#      104288
#      121995
#      140808
#      157476
# 
# Disc length: 2335 seconds
#
# Revision: 2
# Processed by: cddbd v1.4PL0 Copyright (c) Steve Scherf et al.
#
# Submitted via: FreeRIP 1.20
#
DISCID=8c091d0a
DTITLE=The Poverty Plainsmen - Gotta Be A Believer
DYEAR=1900
DGENRE=country
TTITLE0=Old Man
TTITLE1=Mama Told Me
TTITLE2=Leavin Town
TTITLE3=Dance Away The Blues
TTITLE4=All The Love
TTITLE5=Running Away
TTITLE6=Making Up For Doin' Time
TTITLE7=My Stompin' Grounds
TTITLE8=Nothin' More Nothin' Less
TTITLE9=Borderline
EXTD=
EXTT0=
EXTT1=
EXTT2=
EXTT3=
EXTT4=
EXTT5=
EXTT6=
EXTT7=
EXTT8=
EXTT9=
PLAYORDER=
